<svg width="11" height="6" viewBox="0 0 11 6" fill="none" xmlns="http://www.w3.org/2000/svg">
<path id="Vector" d="M5.34654e-05 0.995538C-0.000345172 1.12361 0.0255585 1.25016 0.075862 1.36588C0.126165 1.48159 0.199591 1.58354 0.290741 1.66423L5.00458 5.80498C5.14516 5.93107 5.32149 6 5.50346 6C5.68544 6 5.86177 5.93107 6.00235 5.80498L10.7162 1.51849C10.8766 1.37297 10.9775 1.16387 10.9967 0.937177C11.0158 0.710485 10.9517 0.484775 10.8183 0.3097C10.685 0.134626 10.4933 0.0245285 10.2856 0.00362777C10.0779 -0.017273 9.87101 0.0527353 9.71057 0.198252L5.49954 4.03037L1.2885 0.326846C1.17318 0.222013 1.03276 0.155421 0.883841 0.13495C0.734923 0.114478 0.583747 0.140983 0.448202 0.211329C0.312658 0.281675 0.198417 0.392918 0.118997 0.531895C0.0395756 0.670871 -0.00169939 0.831765 5.34654e-05 0.995538Z" fill="#2B2B2B"/>
</svg>
